<svg width="22" height="24" viewBox="0 0 22 24" fill="none" xmlns="http://www.w3.org/2000/svg">
<path d="M9.99356 11.2813C9.99356 10.9307 10.3096 10.6667 10.6602 10.6667C11.0109 10.6667 11.3269 10.9307 11.3269 11.2813V23.3333C11.3269 23.5101 11.2567 23.6797 11.1316 23.8047C11.0066 23.9298 10.837 24 10.6602 24C10.4834 24 10.3138 23.9298 10.1888 23.8047C10.0638 23.6797 9.99356 23.5101 9.99356 23.3333V11.2813ZM13.3269 6.66667C13.3268 6.07542 13.1303 5.50095 12.7683 5.03348C12.4063 4.56601 11.8993 4.23203 11.3269 4.084V0.666667C11.3269 0.489856 11.2567 0.320287 11.1316 0.195262C11.0066 0.070238 10.837 0 10.6602 0C10.4834 0 10.3138 0.070238 10.1888 0.195262C10.0638 0.320287 9.99356 0.489856 9.99356 0.666667V4.084C9.36656 4.24782 8.82063 4.63424 8.45769 5.17112C8.09475 5.70799 7.93962 6.3586 8.02127 7.00148C8.10291 7.64436 8.41575 8.23554 8.90137 8.66465C9.38699 9.09375 10.0122 9.33144 10.6602 9.33333C11.3675 9.33333 12.0457 9.05238 12.5458 8.55228C13.0459 8.05219 13.3269 7.37391 13.3269 6.66667ZM2.66022 20C3.30973 20.0006 3.93715 19.7642 4.42471 19.3351C4.91227 18.906 5.22644 18.3136 5.30828 17.6693C5.39011 17.025 5.23396 16.3729 4.86915 15.8355C4.50434 15.2982 3.95594 14.9124 3.32689 14.7507V0.666667C3.32689 0.489856 3.25665 0.320287 3.13163 0.195262C3.0066 0.070238 2.83703 0 2.66022 0C2.48341 0 2.31384 0.070238 2.18882 0.195262C2.06379 0.320287 1.99356 0.489856 1.99356 0.666667V14.7507C1.36656 14.9145 0.820628 15.3009 0.457689 15.8378C0.0947503 16.3747 -0.0603798 17.0253 0.0212658 17.6681C0.102911 18.311 0.41575 18.9022 0.901368 19.3313C1.38699 19.7604 2.01218 19.9981 2.66022 20ZM18.6602 18C18.3096 18 17.9936 18.264 17.9936 18.6147V23.3333C17.9936 23.5101 18.0638 23.6797 18.1888 23.8047C18.3138 23.9298 18.4834 24 18.6602 24C18.837 24 19.0066 23.9298 19.1316 23.8047C19.2567 23.6797 19.3269 23.5101 19.3269 23.3333V18.6147C19.3269 18.264 19.0109 18 18.6602 18ZM19.3269 11.4173C19.9539 11.5812 20.4998 11.9676 20.8628 12.5044C21.2257 13.0413 21.3808 13.6919 21.2992 14.3348C21.2175 14.9777 20.9047 15.5689 20.4191 15.998C19.9335 16.4271 19.3083 16.6648 18.6602 16.6667C18.0107 16.6673 17.3833 16.4309 16.8957 16.0018C16.4082 15.5726 16.094 14.9803 16.0122 14.336C15.9303 13.6916 16.0865 13.0396 16.4513 12.5022C16.8161 11.9648 17.3645 11.5791 17.9936 11.4173V0.666667C17.9936 0.489856 18.0638 0.320287 18.1888 0.195262C18.3138 0.070238 18.4834 0 18.6602 0C18.837 0 19.0066 0.070238 19.1316 0.195262C19.2567 0.320287 19.3269 0.489856 19.3269 0.666667V11.4173ZM1.99356 21.948C1.99356 21.5973 2.30956 21.3333 2.66022 21.3333C3.01089 21.3333 3.32689 21.5973 3.32689 21.948V23.3333C3.32689 23.5101 3.25665 23.6797 3.13163 23.8047C3.0066 23.9298 2.83703 24 2.66022 24C2.48341 24 2.31384 23.9298 2.18882 23.8047C2.06379 23.6797 1.99356 23.5101 1.99356 23.3333V21.948Z" fill="#1A1D1C"/>
</svg>
