<svg width="25" height="24" viewBox="0 0 25 24" fill="none" xmlns="http://www.w3.org/2000/svg">
<path d="M8.75 9V5.25C8.75 4.65326 8.98705 4.08097 9.40901 3.65901C9.83097 3.23705 10.4033 3 11 3H17C17.5967 3 18.169 3.23705 18.591 3.65901C19.0129 4.08097 19.25 4.65326 19.25 5.25V18.75C19.25 19.3467 19.0129 19.919 18.591 20.341C18.169 20.7629 17.5967 21 17 21H11C10.4033 21 9.83097 20.7629 9.40901 20.341C8.98705 19.919 8.75 19.3467 8.75 18.75V15M5.75 15L2.75 12M2.75 12L5.75 9M2.75 12H15.5" stroke="black" stroke-width="1.5" stroke-linecap="round" stroke-linejoin="round"/>
</svg>
