<?xml version="1.0" encoding="utf-8"?>
<svg xmlns="http://www.w3.org/2000/svg" xmlns:xlink="http://www.w3.org/1999/xlink" version= "1.1" width="1080px" height="2352px" viewBox="0 0 1080 2352">
<g id="layer1">
<g>
<g style="fill:rgb(0,0,0); fill-opacity:1.0; stroke-linejoin: miter">
<path d="M835.4739,1263.7241L787.28186,1263.8098L784.61646,1276.4866L784.61646,1276.4866L832.8085,1276.4009L835.4739,1263.7241 Z M371.52985,1277.606L373.60123,1308.7064L355.84125,1308.738L355.84125,1308.738L371.52985,1277.606 Z M621.4349,1276.7771Q624.77673,1276.7771,624.7807,1278.9792Q624.78125,1279.2671,624.68585,1279.6514Q624.6865,1280.0354,624.59143,1280.5155L617.73706,1312.8798Q617.3561,1314.6084,616.39746,1315.3782Q615.43884,1316.148,613.1348,1316.152L594.99084,1316.1843Q594.984,1316.1843,594.97723,1316.1843Q592.2069,1316.1843,592.2033,1314.1732Q592.20276,1313.8853,592.39307,1312.9248L599.24744,1280.5605Q599.7235,1278.3518,600.5862,1277.5823Q601.3528,1276.8129,603.2728,1276.8094L621.41675,1276.7771Q621.4258,1276.7771,621.4349,1276.7771 Z M945.68164,1263.5278L899.50574,1263.6101L896.84045,1276.3828L912.5845,1276.3547L901.63745,1328.5984L916.2295,1328.5724L927.1764,1276.3289L943.01636,1276.3005L945.68164,1263.5278 Z M893.26575,1263.6211L856.6898,1263.6863Q850.5458,1263.6973,847.47876,1266.4867Q844.5078,1269.2759,843.27,1275.0381L834.41736,1317.39Q834.1316,1318.6384,834.0375,1319.6947Q833.94324,1320.6548,833.94495,1321.6149Q833.9514,1325.263,836.0665,1326.987Q838.1709,1328.7026,843.0283,1328.7026Q843.05286,1328.7026,843.0775,1328.7026L879.84546,1328.6372L882.6061,1315.4802L853.0382,1315.5328Q853.0259,1315.5328,853.0138,1315.5328Q851.2096,1315.5328,850.54126,1315.0574Q849.8684,1314.5785,849.8666,1313.5225Q849.86584,1313.1384,849.9612,1312.7544Q849.9607,1312.4663,850.0558,1311.9861L856.8154,1280.2941Q857.2915,1278.0852,858.15405,1277.3157Q858.9209,1276.6423,861.225,1276.6382L890.60095,1276.5859L893.26575,1263.6211 Z M798.73706,1281.2615L783.66504,1281.2883L773.6697,1328.8262L773.6697,1328.8262L821.8616,1328.7404L824.5265,1315.7756L791.4065,1315.8346L794.2623,1302.1975L818.16626,1302.1549L820.35583,1291.783L820.35583,1291.783L796.4518,1291.8256L798.73706,1281.2615 Z M776.91394,1263.8284L763.282,1263.8525L755.19104,1302.6511L733.81006,1263.905L720.08203,1263.9294L706.4697,1328.9458L720.00574,1328.9216L728.95386,1286.2817L753.6057,1328.8618L763.30164,1328.8447L776.91394,1263.8284 Z M709.42615,1263.9485L695.79407,1263.9727L687.7031,1302.7712L666.32214,1264.0251L652.5941,1264.0496L638.9818,1329.0659L652.5178,1329.0419L661.46594,1286.4019L686.1178,1328.982L695.81384,1328.9648L709.42615,1263.9485 Z M631.6191,1264.0869Q631.5946,1264.0869,631.5702,1264.087L599.21826,1264.1447Q592.9783,1264.1558,590.0072,1266.9451Q587.03613,1269.7344,585.79846,1275.4966L576.9458,1317.8484Q576.37427,1320.3455,576.3775,1322.1694Q576.3838,1325.7214,578.5949,1327.4456Q580.69934,1329.1611,585.55664,1329.1611Q585.5813,1329.1611,585.60596,1329.161L617.9579,1329.1034Q624.10187,1329.0925,627.16895,1326.303Q630.14,1323.5137,631.37775,1317.7515L640.23035,1275.3997Q640.4203,1274.2473,640.6104,1273.1909Q640.7045,1272.1348,640.7028,1271.1748Q640.69635,1267.5269,638.5813,1265.8025Q636.4768,1264.0869,631.6191,1264.0869 Z M579.44226,1264.1799L542.86633,1264.245Q536.7223,1264.2559,533.6553,1267.0454Q530.68427,1269.8347,529.44653,1275.5969L520.5939,1317.9487Q520.3081,1319.1973,520.214,1320.2534Q520.11975,1321.2136,520.12146,1322.1736Q520.1279,1325.8215,522.243,1327.5458Q524.3474,1329.2614,529.2048,1329.2614Q529.2294,1329.2614,529.254,1329.2612L566.022,1329.1958L568.7826,1316.039L539.2146,1316.0916Q539.2024,1316.0916,539.1902,1316.0916Q537.3861,1316.0916,536.7178,1315.616Q536.0449,1315.1372,536.0431,1314.0813Q536.04236,1313.6973,536.1377,1313.313Q536.13715,1313.025,536.2323,1312.5449L542.99194,1280.8528Q543.468,1278.6439,544.33057,1277.8744Q545.0974,1277.201,547.40137,1277.1969L576.77734,1277.1447L579.44226,1264.1799 Z M498.8984,1264.3232L484.59445,1264.3486L462.50305,1311.9082L460.40247,1264.3918L445.81052,1264.4177L422.3753,1312.0756L421.23453,1264.4615L406.25854,1264.4882L408.87024,1329.4756L425.19022,1329.4465L448.72366,1283.0366L451.2062,1329.4003L467.62216,1329.3711L498.8984,1264.3232 Z M384.37057,1264.5271L365.26663,1264.5612L331.5904,1329.6133L331.5904,1329.6133L345.70236,1329.5881L350.6764,1319.4993L374.10037,1319.4575L374.7903,1329.5364L389.47827,1329.5103L384.37057,1264.5271 Z M326.62994,1264.63Q326.60434,1264.63,326.57867,1264.6301L285.29874,1264.7036L282.6333,1277.3804L317.09726,1277.319Q317.10965,1277.319,317.122,1277.319Q318.73438,1277.319,319.40192,1277.6989Q320.07462,1278.0817,320.07666,1279.2336Q320.07718,1279.5217,319.98187,1279.9058Q319.98254,1280.2898,319.8874,1280.77L317.6022,1291.334Q317.1258,1293.3508,316.359,1294.0243Q315.68817,1294.6975,313.57617,1294.7012L293.60822,1294.7368L296.27383,1282.156L281.68185,1282.182L271.68646,1329.72L271.68646,1329.72L286.27844,1329.6938L291.32336,1305.4929L312.34735,1305.4554Q312.35565,1305.4554,312.36392,1305.4554Q315.03534,1305.4554,315.0381,1306.9866Q315.03857,1307.2747,314.94327,1307.6588Q314.9438,1307.9468,314.84863,1308.427L310.4704,1329.6509L325.06238,1329.6249L329.7262,1307.0565Q329.91718,1306.4802,329.91617,1305.9042Q329.9153,1305.4242,329.91446,1304.9441Q329.909,1301.8722,327.79477,1300.6279Q325.68073,1299.4797,322.6084,1299.2932Q325.9677,1298.9032,328.74792,1296.7863Q331.52832,1294.7653,332.57544,1289.7715L335.5263,1275.654Q335.71643,1274.5978,335.90674,1273.6375Q336.00104,1272.6772,335.99948,1271.8132Q335.99298,1268.1653,333.78174,1266.3452Q331.58203,1264.63,326.62994,1264.63 Z"/>
</g>
</g>
<g style="fill:rgb(0,0,0); fill-opacity:1.0; stroke-linejoin: miter">
<path d="M1045.8951,1834.9379Q1047.4633,1835.9097,1048.9559,1836.8727Q1046.9606,1835.5787,1045.8951,1834.9379 M1059.3531,1844.4696L1059.4404,1844.5432Q1062.4889,1847.1677,1063.0223,1847.7106Q1061.1637,1845.9485,1059.3531,1844.4696 M1066.5273,1851.3534L1066.6261,1851.4656Q1068.2576,1853.3378,1070.3645,1855.914Q1067.1779,1852.0248,1066.5273,1851.3534 M1074.4924,1861.1589L1074.4924,1861.1602Q1074.5157,1861.2014,1074.5282,1861.2296L1074.5337,1861.2428Q1074.5385,1861.2552,1074.5405,1861.2645L1074.542,1861.2728L1074.542,1861.2795L1074.5408,1861.2859L1074.538,1861.29Q1074.5343,1861.293,1074.531,1861.2931Q1074.5244,1861.2963,1074.5023,1861.2853L1074.4913,1861.2863Q1074.4924,1861.2863,1074.5139,1861.3038Q1074.5587,1861.3407,1074.5999,1861.3754Q1074.6061,1861.3787,1074.6104,1861.3784L1074.6144,1861.377L1074.6163,1861.3728Q1074.6182,1861.3503,1074.5715,1861.2698Q1074.5437,1861.2213,1074.5032,1861.1589L1074.4924,1861.1589"/>
</g>
<g style="fill:rgb(99,66,33); fill-opacity:1.0; stroke-linejoin: miter">
<path d="M709.27576,1144.911L705.4901,1149.5032Q677.3281,1185.9889,644.89136,1196.5579Q624.35126,1203.507,600.71655,1204.8942Q579.3128,1206.1392,559.8217,1202.8778Q538.4669,1199.2638,520.9889,1190.3345Q515.17725,1187.3639,509.83936,1183.8203L504.62527,1180.1356Q499.53232,1176.3088,494.9454,1171.9224Q475.9661,1155.0656,452.3268,1105.9633L478.51093,1109.3953Q485.6132,1129.68,496.87936,1144.9208Q509.24316,1160.6385,521.6347,1168.9113Q538.685,1179.9841,549.1302,1183.0916Q564.49634,1188.2367,575.7243,1189.7643Q619.0864,1196.427,653.9551,1184.781Q664.1486,1181.8247,682.0071,1169.3789Q696.5646,1158.0092,709.27576,1144.911"/>
</g>
<g style="fill:rgb(199,250,65); fill-opacity:1.0; stroke-linejoin: miter">
<path d="M505.3877,1321.9487L505.3877,1321.9489L505.3877,1321.9487"/>
</g>
<g style="fill:rgb(199,250,65); fill-opacity:1.0; stroke-linejoin: miter">
<path d="M507.9749,1321.9487L507.9749,1321.9489L507.9749,1321.9487"/>
</g>
<g style="fill:rgb(139,226,255); fill-opacity:1.0; stroke-linejoin: miter">
<path d="M522.6487,1296.0746Q521.8469,1297.3169,520.7559,1298.536Q516.275,1303.0848,509.72232,1303.4463Q507.2438,1303.6812,504.55386,1303.6812Q504.28958,1303.6812,504.02335,1303.6788L480.1062,1303.407L476.8581,1303.3701Q471.8802,1303.1676,467.9263,1301.2863Q467.72632,1301.1973,467.52872,1301.0988L464.04507,1308.5885Q468.24536,1310.4202,473.2747,1310.6448Q474.89676,1310.754,476.54855,1310.8062L476.54852,1310.8071Q478.04434,1310.8531,479.55472,1310.8538L501.06955,1310.8757Q505.09644,1310.9965,507.15564,1310.9965L507.20584,1310.9974Q507.2807,1310.9965,507.3529,1310.9962Q507.58627,1310.9978,507.81842,1310.9978Q511.3009,1310.9976,514.50323,1310.6322Q519.33386,1310.001,522.07916,1308.5371Q522.35114,1308.3954,522.6165,1308.2474L525.16565,1296.0771L522.6487,1296.0746 Z"/>
</g>
<g style="fill:rgb(139,226,255); fill-opacity:1.0; stroke-linejoin: miter">
<path d="M497.79285,1266.6226L494.51822,1273.4331Q494.6472,1273.4379,494.77213,1273.4426Q496.99258,1273.5264,499.46268,1273.6375Q501.90433,1273.7468,504.58875,1273.8827L505.67258,1273.9507Q519.2201,1274.3562,523.0681,1282.3435Q524.77234,1285.5621,524.8657,1288.6522L524.87634,1288.6512L526.71344,1288.6724L529.3088,1276.256Q526.5337,1272.244,523.4792,1270.5895Q518.47955,1267.6188,509.5343,1267.2458L508.17496,1267.1505Q506.41626,1267.0513,504.74252,1266.9625Q504.09656,1266.9282,503.46304,1266.8955L503.4637,1266.8965Q500.49295,1266.7421,497.8006,1266.6226 Z"/>
</g>
<g style="fill:rgb(139,226,255); fill-opacity:1.0; stroke-linejoin: miter">
<path d="M461.7742,1295.421L461.7742,1295.422L462.31912,1307.7474C462.8839,1308.0508,463.717,1308.4558,464.30338,1308.712L467.76642,1301.2588C465.64688,1300.1996,463.48944,1298.147,461.7788,1295.421L461.7742,1295.422 Z"/>
</g>
<g style="fill:rgb(139,226,255); fill-opacity:1.0; stroke-linejoin: miter">
<path d="M482.3349,1266.2035Q474.9757,1266.2035,472.7416,1266.83Q466.0611,1267.6893,460.72745,1271.847L461.23813,1283.295Q462.16135,1281.3707,463.71402,1279.4349Q469.00095,1274.379,476.3432,1273.5925Q477.51636,1273.3148,480.4658,1273.2267L483.7304,1266.2087Q483.01483,1266.2035,482.33777,1266.2035 Z"/>
</g>
<g style="fill:rgb(139,226,255); fill-opacity:1.0; stroke-linejoin: miter">
<path d="M483.7304,1266.2087L480.47064,1273.2266L483.73044,1266.2087 Z"/>
</g>
<g style="fill:rgb(118,142,154); fill-opacity:1.0; stroke-linejoin: miter">
<path d="M494.76743,1273.4426L494.76743,1273.4436Q494.52863,1278.4423,496.51624,1283.1954Q500.11118,1290.4304,504.7362,1292.8328Q509.68936,1295.5859,515.9334,1295.8651Q519.01953,1296.0728,522.2134,1296.0741L522.6487,1296.0746L532.39075,1296.0844L539.7415,1296.0922L543.7282,1296.0958Q547.7509,1296.2166,549.81,1296.2166L549.86444,1296.2175Q549.9393,1296.2166,550.0114,1296.2163Q550.2448,1296.2179,550.477,1296.2179Q553.96063,1296.2179,557.16174,1295.8524Q561.9924,1295.2212,564.7377,1293.7572Q568.5237,1291.7849,571.0219,1288.5852Q575.27026,1283.023,576.047,1277.146L576.04126,1277.147L567.1525,1277.1617Q566.2933,1280.5394,563.41455,1283.7563Q558.93365,1288.3048,552.381,1288.6665Q549.90234,1288.9011,547.21246,1288.9015Q546.9482,1288.9015,546.68195,1288.8992L541.2888,1288.8379L533.5662,1288.75L533.55536,1288.751L524.87634,1288.6512L524.8711,1288.6522Q524.87115,1288.6523,524.87115,1288.6533L524.87115,1288.6543L519.51666,1288.5901Q514.5388,1288.3878,510.585,1286.5065Q506.8933,1284.8643,504.01294,1279.9403Q502.4534,1276.8762,502.54807,1273.782Q500.95883,1273.7047,499.46268,1273.6375Q496.99258,1273.5264,494.77237,1273.4426 Z"/>
</g>
<g style="fill:rgb(118,142,154); fill-opacity:1.0; stroke-linejoin: miter">
<path d="M524.99335,1251.4238Q517.6342,1251.4238,515.40015,1252.0504Q506.18622,1253.2354,499.53442,1260.6952Q498.14328,1262.1581,497.10934,1264.3264L498.8984,1264.3232L497.7929,1266.6224Q499.34134,1266.6909,500.9733,1266.7708Q502.1981,1266.8302,503.46777,1266.8958Q504.0992,1266.9283,504.74252,1266.9625Q505.44562,1265.8108,506.3726,1264.655Q511.65958,1259.5992,519.00183,1258.8127Q520.719,1258.4061,526.2418,1258.4061Q533.5011,1258.4071,547.2472,1259.1033L548.33105,1259.1711Q558.6734,1259.4806,563.3629,1264.2085L573.6656,1264.1902Q570.13965,1257.9777,566.13763,1255.8097Q561.138,1252.8391,552.1928,1252.4662L550.83356,1252.3707Q534.0433,1251.4238,524.9963,1251.4238 Z"/>
</g>
<g style="fill:rgb(199,250,65); fill-opacity:1.0; stroke-linejoin: miter">
<path d="M895.428,2103.208L892.32764,2104.5557L889.22736,2105.9033L895.428,2103.208"/>
</g>
</g>
<g id="layer2">
<g style="fill:rgb(99,66,33); fill-opacity:1.0; stroke-linejoin: miter">
<path d="M455.54007,1114.6028Q441.16443,1126.4772,437.6481,1143.2568Q436.03918,1154.0673,436.59485,1156.1581Q436.79437,1160.3955,437.7342,1164.4996Q439.61386,1172.7076,444.45468,1180.3829Q453.98706,1195.9453,473.882,1201.7552Q478.15872,1202.827,482.37607,1203.1677Q483.09332,1203.3774,484.72964,1203.3774Q487.9889,1203.3774,494.8945,1202.5453Q503.15082,1201.0336,511.1695,1196.5973Q517.5904,1192.6191,522.36035,1187.6504L522.3551,1187.6514Q512.0515,1192.8,499.17297,1192.8L499.15527,1192.801Q478.25476,1191.7123,464.08127,1176.556Q459.5346,1171.653,456.26898,1165.6337L453.39026,1159.3911Q450.86517,1152.8973,450.02124,1145.6227Q448.48297,1128.3351,455.54462,1114.6028 Z"/>
</g>
<g style="fill:rgb(99,66,33); fill-opacity:1.0; stroke-linejoin: miter">
<path d="M704.8707,990.1644Q694.5958,990.1644,679.387,992.4459Q638.50757,998.5783,580.6248,1018.397Q522.9325,1038.7638,487.06683,1059.3158Q451.20114,1079.8678,453.51813,1091.2325L455.9651,1094.2681L460.73764,1096.336L467.66315,1097.4625Q470.61075,1097.704,474.04898,1097.704Q479.9445,1097.704,487.28247,1096.994Q523.5155,1093.4147,579.8591,1075.6827Q638.70483,1056.5518,679.64215,1035.2819Q707.31476,1020.8651,718.54724,1009.98395L718.5401,1009.9849Q698.64056,1020.9656,678.6571,1030.1007Q635.02496,1050.1617,596.3306,1063.542Q564.6551,1074.6155,533.8207,1081.7428Q513.54535,1086.4056,497.9574,1088.421Q490.27795,1089.4076,484.45767,1089.6055L479.21674,1089.5851Q458.08728,1088.0579,489.58234,1069.4377Q526.25244,1049.2743,572.76,1032.9562Q590.76794,1026.1133,630.99426,1013.8771Q653.5561,1007.2709,671.1542,1003.5244Q695.85614,997.6362,725.4841,997.6043L725.49994,996.6642Q722.21344,990.1644,704.8707,990.1644 Z"/>
</g>
<g style="fill:rgb(99,66,33); fill-opacity:1.0; stroke-linejoin: miter">
<path d="M725.4768,997.6043Q724.69586,997.60516,723.9184,997.6101L723.9184,997.6111Q724.6995,997.60516,725.4841,997.6043 Z"/>
</g>
<g style="fill:rgb(99,66,33); fill-opacity:1.0; stroke-linejoin: miter">
<path d="M739.2726,1165.8989L739.27264,1165.899L739.2727,1165.8992L739.2726,1165.8989"/>
</g>
</g>
<g id="layer3">
<g style="fill:rgb(199,250,65); fill-opacity:1.0; stroke-linejoin: miter">
<path d="M581.63837,1064.6528L578.695,1064.2692Q559.3404,1062.3595,548.373,1054.6536Q539.2145,1048.721,530.93463,1032.3334Q527.048,1024.8865,525.4594,1011.51746Q525.21405,1010.0831,525.06433,1002.29767Q525.86554,971.32733,525.55615,965.65216Q525.38293,953.28235,523.9591,942.5411Q520.9255,924.10815,515.23926,919.78796Q508.69803,913.2073,495.91348,917.0376Q481.2663,922.2961,476.34457,932.7375Q471.3425,944.2043,476.26495,953.1973Q480.70554,960.4766,493.47128,966.4912Q471.2395,967.1651,466.79785,953.1836Q463.78168,945.1587,465.22165,934.96906Q466.82172,924.6565,473.8413,916.943Q490.18558,900.9093,510.21216,903.6311Q532.2268,907.97437,538.75916,934.4129Q540.4579,940.55457,540.1369,958.001L537.1846,998.07605Q536.7802,1009.6084,537.0326,1011.58655Q537.34064,1024.5409,541.8609,1034.4132Q546.7592,1044.0928,556.4691,1050.736Q564.278,1056.4506,581.63837,1064.6528"/>
</g>
<g style="fill:rgb(199,250,65); fill-opacity:1.0; stroke-linejoin: miter">
<path d="M552.39154,943.1508L551.932,940.57196Q549.8827,928.9377,547.93274,923.7586Q545.7377,917.3169,541.74115,913.7173Q539.9014,911.70294,533.9623,909.3009Q533.15717,908.91656,528.4701,907.6864L526.54266,907.23486Q516.5574,905.1253,514.63654,904.4501Q510.737,903.3455,507.5085,901.5251Q500.94003,897.6741,499.57907,890.09875Q499.25467,888.325,499.27908,886.5826L499.39218,884.8767Q499.59323,883.19305,500.1521,881.7134Q501.12314,878.8204,504.13617,876.93805Q508.19043,874.7723,512.8979,875.31506Q517.67255,875.95465,519.86707,878.1301Q522.7561,880.2301,524.1524,888.76416Q520.2118,879.38226,510.93698,879.9334Q506.9343,880.25055,505.4019,883.0353Q505.02347,883.36554,504.74234,885.91956Q504.70615,888.08154,505.71008,890.2516Q507.22702,893.58527,510.95953,895.20593Q511.46057,895.55835,515.0824,896.4233L528.8476,898.38947Q532.5567,899.0258,536.10596,900.1774Q543.9443,903.0527,546.6966,906.571Q551.089,911.20996,552.93335,921.3842Q554.65027,930.2033,552.39154,943.1508"/>
</g>
<g style="fill:rgb(199,250,65); fill-opacity:1.0; stroke-linejoin: miter">
<path d="M607.0949,1053.4119L607.15674,1049.781Q607.47327,1033.4169,605.9725,1025.4265Q604.4683,1015.6422,599.252,1008.2993Q593.85065,1001.07025,585.89154,995.6615Q581.9665,992.62915,561.2673,980.8203Q556.08606,977.65564,552.31995,974.2147Q550.46466,972.485,549.12994,970.6305L547.9531,968.7356Q545.9493,964.8134,546.2135,960.5712Q545.98584,959.484,547.60254,954.3859Q549.2281,950.3333,552.21594,947.1062Q557.7735,941.661,563.42474,940.37085Q572.43304,938.51904,577.0802,940.4702Q584.9464,943.1973,588.80536,949.39453Q590.62976,952.3634,590.822,955.4212Q591.11237,956.19806,590.10785,959.8551Q588.24475,964.93274,580.7113,972.48553Q586.7169,962.9772,585.8494,956.70245Q585.6152,955.3088,584.9722,953.9476Q583.0334,950.6269,582.2319,950.1305Q579.86456,947.7599,576.49023,946.5189Q569.41974,943.9413,561.3954,949.0042Q553.0852,954.6609,553.16113,961.21533Q553.31586,962.8053,554.196,964.30054L555.229,965.78143Q556.4291,967.2432,558.1839,968.66595Q558.7999,969.37396,564.4117,972.9388Q583.01465,983.2266,591.6384,989.38873Q603.3929,998.1726,606.4989,1004.0512Q611.8056,1012.2,611.92224,1025.2157Q611.948,1036.953,607.0949,1053.4119"/>
</g>
<g style="fill:rgb(199,250,65); fill-opacity:1.0; stroke-linejoin: miter">
<path d="M713.09875,1115.4662L713.68884,1112.9092Q718.4382,1089.6945,730.3419,1079.8923Q736.9906,1073.8533,746.4056,1069.5884Q758.4208,1064.4598,769.43066,1063.2905Q790.40485,1060.9515,807.3436,1068.1453Q824.87665,1075.7532,848.3685,1095.8334Q840.3271,1093.5613,835.30975,1094.7827Q828.56024,1096.2151,821.1992,1101.1895Q814.78156,1104.9955,801.89856,1116.8912Q796.0823,1122.3508,780.2388,1140.0742Q773.5239,1146.8242,772.08624,1147.7809Q762.02155,1156.0615,752.1539,1157.3258Q730.7196,1159.8701,719.7868,1144.0544Q715.14777,1136.6702,716.5613,1127.9171Q718.3097,1119.2252,727.00745,1111.321Q749.15454,1092.6067,775.29736,1085.6383Q793.752,1080.9215,828.3921,1086.4065Q804.8864,1080.4049,795.0446,1079.921Q781.31805,1078.8093,768.9582,1082.046Q756.39746,1085.2588,743.99524,1092.8256Q734.6423,1098.1515,713.09875,1115.4662"/>
</g>
<g style="fill:rgb(199,250,65); fill-opacity:1.0; stroke-linejoin: miter">
<path d="M707.26074,1120.0408L707.2572,1118.0074Q707.7396,1104.6984,702.5555,1096.49Q701.1147,1093.6132,694.5565,1088.0146Q688.53546,1083.3342,681.2034,1080.5323Q660.5751,1072.114,626.3836,1085.0531Q637.6388,1088.6646,643.4337,1095.5227Q645.9588,1098.6833,647.9078,1103.0913L649.7944,1107.6238Q655.43164,1123.3103,655.9923,1124.1267Q657.8881,1128.4729,660.17285,1131.9613Q665.8061,1140.6569,674.7243,1144.2703Q680.18604,1146.4773,685.7217,1146.4373Q691.0688,1146.5121,695.728,1143.3171Q705.83984,1134.535,701.57007,1123.6212Q694.15906,1110.5077,678.8618,1098.8381Q669.60925,1091.6816,650.5478,1085.0828Q672.2584,1089.076,683.10156,1096.0111Q698.6383,1105.4808,707.26074,1120.0408"/>
</g>
<g style="fill:rgb(199,250,65); fill-opacity:1.0; stroke-linejoin: miter">
<path d="M692.5029,1077.9825L692.5029,1077.9827L692.503,1077.9828L692.5029,1077.9825"/>
</g>
</g>
</svg>