<?xml version="1.0" encoding="UTF-8"?>
<svg xmlns="http://www.w3.org/2000/svg" xmlns:xlink="http://www.w3.org/1999/xlink" width="100px" height="218px" viewBox="0 0 100 217" version="1.1">
<g id="surface1">
<path style=" stroke:none;fill-rule:nonzero;fill:rgb(0%,0%,0%);fill-opacity:1;" d="M 77.359375 116.59375 L 72.894531 116.601562 L 72.648438 117.769531 L 77.113281 117.761719 Z M 34.402344 117.875 L 34.59375 120.742188 L 32.949219 120.746094 Z M 57.539062 117.796875 C 57.746094 117.796875 57.851562 117.867188 57.851562 118 C 57.851562 118.019531 57.847656 118.039062 57.839844 118.0625 C 57.839844 118.085938 57.839844 118.113281 57.832031 118.144531 L 57.199219 121.128906 C 57.175781 121.234375 57.132812 121.3125 57.074219 121.359375 C 57.015625 121.40625 56.914062 121.429688 56.773438 121.429688 L 55.089844 121.433594 C 54.917969 121.433594 54.832031 121.371094 54.832031 121.25 C 54.832031 121.230469 54.839844 121.191406 54.851562 121.132812 L 55.484375 118.148438 C 55.515625 118.011719 55.554688 117.917969 55.609375 117.871094 C 55.65625 117.824219 55.738281 117.800781 55.859375 117.800781 Z M 87.5625 116.574219 L 83.289062 116.582031 L 83.039062 117.761719 L 84.5 117.757812 L 83.484375 122.578125 L 84.835938 122.578125 L 85.851562 117.757812 L 87.316406 117.753906 Z M 82.710938 116.585938 L 79.324219 116.589844 C 78.945312 116.589844 78.660156 116.675781 78.46875 116.847656 C 78.285156 117.019531 78.15625 117.28125 78.082031 117.636719 L 77.261719 121.542969 C 77.242188 121.621094 77.230469 121.691406 77.226562 121.757812 C 77.21875 121.816406 77.21875 121.875 77.21875 121.933594 C 77.21875 122.160156 77.28125 122.324219 77.414062 122.429688 C 77.542969 122.535156 77.757812 122.589844 78.058594 122.589844 C 78.058594 122.589844 78.0625 122.589844 78.0625 122.589844 L 81.46875 122.582031 L 81.722656 121.367188 L 78.984375 121.375 C 78.871094 121.375 78.796875 121.359375 78.753906 121.328125 C 78.710938 121.300781 78.691406 121.253906 78.691406 121.1875 C 78.691406 121.164062 78.695312 121.140625 78.699219 121.117188 C 78.699219 121.097656 78.703125 121.074219 78.707031 121.046875 L 79.335938 118.121094 C 79.363281 117.988281 79.40625 117.894531 79.457031 117.847656 C 79.507812 117.804688 79.601562 117.785156 79.742188 117.785156 L 82.464844 117.78125 Z M 73.957031 118.210938 L 72.5625 118.214844 L 71.636719 122.601562 L 76.097656 122.59375 L 76.34375 121.394531 L 73.277344 121.402344 L 73.542969 120.144531 L 75.757812 120.140625 L 75.957031 119.183594 L 73.746094 119.1875 Z M 71.9375 116.601562 L 70.675781 116.605469 L 69.925781 120.183594 L 67.945312 116.609375 L 66.675781 116.613281 L 65.414062 122.609375 L 66.667969 122.609375 L 67.496094 118.675781 L 69.777344 122.601562 L 70.675781 122.601562 Z M 65.6875 116.613281 L 64.425781 116.617188 L 63.675781 120.195312 L 61.695312 116.621094 L 60.425781 116.625 L 59.164062 122.621094 L 60.417969 122.621094 L 61.246094 118.6875 L 63.53125 122.613281 L 64.425781 122.613281 Z M 58.484375 116.628906 C 58.480469 116.628906 58.480469 116.628906 58.480469 116.628906 L 55.484375 116.632812 C 55.097656 116.632812 54.8125 116.71875 54.628906 116.890625 C 54.445312 117.0625 54.316406 117.324219 54.242188 117.679688 L 53.421875 121.585938 C 53.386719 121.742188 53.367188 121.875 53.367188 121.984375 C 53.367188 122.203125 53.4375 122.367188 53.574219 122.472656 C 53.703125 122.578125 53.917969 122.632812 54.21875 122.632812 C 54.21875 122.632812 54.222656 122.632812 54.222656 122.632812 L 57.21875 122.625 C 57.597656 122.625 57.882812 122.539062 58.070312 122.367188 C 58.253906 122.195312 58.382812 121.933594 58.460938 121.578125 L 59.28125 117.671875 C 59.292969 117.601562 59.304688 117.53125 59.316406 117.46875 C 59.320312 117.402344 59.324219 117.339844 59.324219 117.28125 C 59.324219 117.054688 59.257812 116.890625 59.128906 116.785156 C 58.996094 116.679688 58.78125 116.628906 58.484375 116.628906 Z M 53.652344 116.636719 L 50.265625 116.640625 C 49.886719 116.640625 49.601562 116.726562 49.414062 116.898438 C 49.230469 117.070312 49.097656 117.335938 49.023438 117.6875 L 48.203125 121.597656 C 48.183594 121.671875 48.171875 121.742188 48.167969 121.808594 C 48.164062 121.867188 48.160156 121.925781 48.160156 121.984375 C 48.160156 122.210938 48.226562 122.375 48.355469 122.480469 C 48.484375 122.585938 48.699219 122.640625 49 122.640625 C 49.003906 122.640625 49.003906 122.640625 49.003906 122.640625 L 52.410156 122.632812 L 52.664062 121.421875 L 49.925781 121.425781 C 49.8125 121.425781 49.738281 121.410156 49.695312 121.382812 C 49.65625 121.351562 49.632812 121.304688 49.632812 121.238281 C 49.632812 121.214844 49.636719 121.191406 49.640625 121.167969 C 49.640625 121.152344 49.644531 121.128906 49.652344 121.097656 L 50.277344 118.175781 C 50.304688 118.039062 50.347656 117.945312 50.402344 117.898438 C 50.449219 117.859375 50.542969 117.835938 50.683594 117.835938 L 53.40625 117.832031 Z M 46.195312 116.648438 L 44.871094 116.652344 L 42.824219 121.039062 L 42.628906 116.65625 L 41.277344 116.65625 L 39.109375 121.054688 L 39.003906 116.660156 L 37.617188 116.664062 L 37.859375 122.660156 L 39.371094 122.65625 L 41.546875 118.375 L 41.777344 122.652344 L 43.296875 122.648438 Z M 35.589844 116.667969 L 33.820312 116.671875 L 30.703125 122.671875 L 32.007812 122.671875 L 32.46875 121.738281 L 34.640625 121.734375 L 34.703125 122.664062 L 36.0625 122.664062 Z M 30.242188 116.675781 C 30.242188 116.675781 30.242188 116.675781 30.238281 116.675781 L 26.417969 116.683594 L 26.167969 117.855469 L 29.359375 117.847656 C 29.363281 117.847656 29.363281 117.847656 29.363281 117.847656 C 29.460938 117.847656 29.53125 117.859375 29.574219 117.882812 C 29.617188 117.90625 29.636719 117.953125 29.636719 118.023438 C 29.636719 118.042969 29.632812 118.0625 29.628906 118.085938 C 29.628906 118.109375 29.625 118.136719 29.621094 118.167969 L 29.40625 119.140625 C 29.378906 119.265625 29.339844 119.347656 29.292969 119.390625 C 29.25 119.429688 29.164062 119.453125 29.035156 119.453125 L 27.1875 119.453125 L 27.433594 118.292969 L 26.082031 118.296875 L 25.15625 122.683594 L 26.507812 122.679688 L 26.972656 120.445312 L 28.921875 120.445312 C 29.085938 120.445312 29.171875 120.492188 29.171875 120.585938 C 29.171875 120.601562 29.167969 120.625 29.160156 120.648438 C 29.160156 120.664062 29.160156 120.6875 29.152344 120.71875 L 28.746094 122.675781 L 30.097656 122.671875 L 30.53125 120.589844 C 30.542969 120.554688 30.546875 120.519531 30.546875 120.484375 C 30.546875 120.457031 30.546875 120.425781 30.546875 120.398438 C 30.546875 120.207031 30.480469 120.074219 30.351562 120 C 30.222656 119.929688 30.0625 119.886719 29.871094 119.875 C 30.078125 119.851562 30.269531 119.773438 30.441406 119.644531 C 30.609375 119.519531 30.730469 119.304688 30.792969 118.996094 L 31.066406 117.695312 C 31.078125 117.628906 31.089844 117.566406 31.101562 117.507812 C 31.109375 117.449219 31.109375 117.394531 31.109375 117.339844 C 31.109375 117.117188 31.042969 116.949219 30.90625 116.835938 C 30.769531 116.730469 30.550781 116.675781 30.242188 116.675781 Z M 30.242188 116.675781 "/>
<path style=" stroke:none;fill-rule:nonzero;fill:rgb(0%,0%,0%);fill-opacity:1;" d="M 96.84375 169.292969 C 96.9375 169.355469 97.035156 169.414062 97.125 169.472656 C 97.003906 169.394531 96.90625 169.335938 96.84375 169.292969 M 98.089844 170.175781 L 98.097656 170.179688 C 98.285156 170.34375 98.394531 170.441406 98.429688 170.472656 C 98.3125 170.363281 98.199219 170.265625 98.089844 170.175781 M 98.753906 170.808594 L 98.761719 170.820312 C 98.863281 170.933594 98.976562 171.070312 99.109375 171.230469 C 98.910156 170.992188 98.792969 170.851562 98.753906 170.808594 M 99.488281 171.714844 C 99.492188 171.714844 99.492188 171.71875 99.492188 171.71875 L 99.492188 171.722656 C 99.496094 171.722656 99.496094 171.722656 99.496094 171.722656 L 99.496094 171.726562 C 99.492188 171.726562 99.492188 171.726562 99.492188 171.726562 L 99.488281 171.726562 C 99.488281 171.726562 99.492188 171.726562 99.492188 171.726562 C 99.496094 171.730469 99.496094 171.730469 99.5 171.734375 C 99.5 171.730469 99.5 171.730469 99.496094 171.722656 C 99.496094 171.722656 99.492188 171.71875 99.492188 171.714844 L 99.488281 171.714844 "/>
<path style=" stroke:none;fill-rule:nonzero;fill:rgb(38.82353%,25.882354%,12.941177%);fill-opacity:1;" d="M 65.671875 105.632812 L 65.324219 106.054688 C 63.585938 108.300781 61.714844 109.746094 59.710938 110.398438 C 58.445312 110.824219 57.082031 111.082031 55.621094 111.164062 C 54.300781 111.242188 53.039062 111.179688 51.835938 110.980469 C 50.515625 110.757812 49.320312 110.371094 48.238281 109.824219 C 47.882812 109.640625 47.535156 109.441406 47.207031 109.222656 L 46.722656 108.882812 C 46.410156 108.644531 46.113281 108.394531 45.828125 108.125 C 44.65625 107.085938 43.339844 105.058594 41.882812 102.039062 L 44.304688 102.355469 C 44.746094 103.601562 45.3125 104.695312 46.007812 105.632812 C 46.769531 106.597656 47.535156 107.335938 48.300781 107.847656 C 49.351562 108.527344 50.199219 108.964844 50.84375 109.152344 C 51.792969 109.472656 52.613281 109.675781 53.308594 109.769531 C 55.984375 110.179688 58.398438 110.027344 60.550781 109.308594 C 61.179688 109.128906 62.046875 108.65625 63.148438 107.890625 C 64.046875 107.191406 64.890625 106.4375 65.671875 105.632812 "/>
<path style=" stroke:none;fill-rule:nonzero;fill:rgb(54.509807%,88.627452%,100%);fill-opacity:1;" d="M 48.394531 119.578125 C 48.34375 119.65625 48.285156 119.730469 48.21875 119.804688 C 47.941406 120.085938 47.601562 120.234375 47.195312 120.257812 C 47.042969 120.273438 46.882812 120.28125 46.71875 120.28125 C 46.703125 120.28125 46.683594 120.28125 46.667969 120.28125 L 44.453125 120.253906 L 44.152344 120.25 C 43.847656 120.238281 43.570312 120.175781 43.328125 120.058594 C 43.3125 120.054688 43.300781 120.046875 43.289062 120.042969 L 42.96875 120.734375 C 43.226562 120.84375 43.511719 120.910156 43.820312 120.921875 C 43.921875 120.929688 44.023438 120.933594 44.125 120.9375 C 44.21875 120.941406 44.308594 120.941406 44.402344 120.941406 L 46.394531 120.945312 C 46.644531 120.953125 46.832031 120.953125 46.957031 120.953125 L 46.964844 120.957031 C 46.96875 120.953125 46.972656 120.953125 46.976562 120.953125 C 46.992188 120.957031 47.007812 120.957031 47.019531 120.957031 C 47.234375 120.957031 47.441406 120.945312 47.640625 120.921875 C 47.9375 120.882812 48.171875 120.816406 48.339844 120.726562 C 48.359375 120.71875 48.375 120.710938 48.390625 120.703125 L 48.625 119.578125 Z M 48.394531 119.578125 "/>
<path style=" stroke:none;fill-rule:nonzero;fill:rgb(54.509807%,88.627452%,100%);fill-opacity:1;" d="M 46.09375 116.859375 L 45.789062 117.488281 C 45.796875 117.488281 45.804688 117.488281 45.8125 117.492188 C 45.949219 117.496094 46.09375 117.5 46.246094 117.507812 C 46.398438 117.515625 46.554688 117.523438 46.722656 117.53125 L 46.820312 117.539062 C 47.65625 117.5625 48.195312 117.820312 48.433594 118.3125 C 48.539062 118.507812 48.59375 118.703125 48.597656 118.894531 L 48.769531 118.894531 L 49.011719 117.75 C 48.839844 117.503906 48.660156 117.328125 48.46875 117.226562 C 48.160156 117.042969 47.730469 116.941406 47.179688 116.917969 L 47.054688 116.910156 C 46.945312 116.902344 46.839844 116.898438 46.734375 116.890625 C 46.695312 116.890625 46.65625 116.886719 46.617188 116.886719 C 46.433594 116.875 46.257812 116.867188 46.09375 116.859375 Z M 46.09375 116.859375 "/>
<path style=" stroke:none;fill-rule:nonzero;fill:rgb(54.509807%,88.627452%,100%);fill-opacity:1;" d="M 42.757812 119.519531 L 42.808594 120.65625 C 42.859375 120.683594 42.9375 120.71875 42.992188 120.746094 L 43.3125 120.054688 C 43.117188 119.957031 42.914062 119.769531 42.757812 119.519531 Z M 42.757812 119.519531 "/>
<path style=" stroke:none;fill-rule:nonzero;fill:rgb(54.509807%,88.627452%,100%);fill-opacity:1;" d="M 44.660156 116.824219 C 44.207031 116.824219 43.910156 116.839844 43.773438 116.878906 C 43.359375 116.933594 42.988281 117.085938 42.660156 117.34375 L 42.707031 118.398438 C 42.765625 118.28125 42.839844 118.164062 42.9375 118.042969 C 43.261719 117.730469 43.652344 117.550781 44.105469 117.503906 C 44.179688 117.488281 44.304688 117.476562 44.488281 117.46875 L 44.789062 116.824219 C 44.746094 116.824219 44.703125 116.824219 44.660156 116.824219 Z M 44.660156 116.824219 "/>
<path style=" stroke:none;fill-rule:nonzero;fill:rgb(54.509807%,88.627452%,100%);fill-opacity:1;" d="M 44.789062 116.824219 L 44.488281 117.46875 Z M 44.789062 116.824219 "/>
<path style=" stroke:none;fill-rule:nonzero;fill:rgb(46.27451%,55.686277%,60.392159%);fill-opacity:1;" d="M 45.8125 117.492188 C 45.796875 117.796875 45.851562 118.097656 45.972656 118.390625 C 46.195312 118.835938 46.449219 119.132812 46.734375 119.277344 C 47.039062 119.449219 47.386719 119.542969 47.773438 119.558594 C 47.960938 119.570312 48.15625 119.578125 48.351562 119.578125 L 49.976562 119.578125 L 50.34375 119.582031 C 50.59375 119.585938 50.78125 119.589844 50.910156 119.589844 L 50.914062 119.589844 C 50.917969 119.589844 50.921875 119.589844 50.925781 119.589844 C 50.941406 119.589844 50.957031 119.589844 50.96875 119.589844 C 51.183594 119.589844 51.390625 119.582031 51.589844 119.558594 C 51.886719 119.519531 52.121094 119.453125 52.289062 119.363281 C 52.523438 119.242188 52.71875 119.085938 52.871094 118.886719 C 53.132812 118.546875 53.289062 118.195312 53.335938 117.832031 L 52.515625 117.832031 C 52.460938 118.042969 52.347656 118.242188 52.167969 118.441406 C 51.890625 118.722656 51.550781 118.871094 51.144531 118.894531 C 50.992188 118.910156 50.832031 118.917969 50.667969 118.917969 C 50.652344 118.917969 50.636719 118.917969 50.617188 118.917969 L 50.121094 118.910156 L 49.402344 118.902344 L 48.601562 118.894531 L 48.597656 118.894531 L 48.101562 118.886719 C 47.796875 118.875 47.519531 118.8125 47.277344 118.695312 C 47.046875 118.59375 46.84375 118.394531 46.667969 118.089844 C 46.570312 117.902344 46.527344 117.710938 46.53125 117.523438 C 46.433594 117.515625 46.339844 117.511719 46.246094 117.507812 C 46.09375 117.5 45.949219 117.496094 45.8125 117.492188 Z M 45.8125 117.492188 "/>
<path style=" stroke:none;fill-rule:nonzero;fill:rgb(46.27451%,55.686277%,60.392159%);fill-opacity:1;" d="M 48.609375 115.457031 C 48.15625 115.457031 47.859375 115.476562 47.722656 115.515625 C 47.152344 115.589844 46.664062 115.855469 46.253906 116.3125 C 46.167969 116.402344 46.09375 116.515625 46.027344 116.648438 L 46.195312 116.648438 L 46.09375 116.859375 C 46.1875 116.863281 46.285156 116.871094 46.386719 116.875 C 46.460938 116.878906 46.539062 116.882812 46.617188 116.886719 C 46.65625 116.886719 46.695312 116.890625 46.734375 116.890625 C 46.777344 116.820312 46.828125 116.75 46.886719 116.679688 C 47.210938 116.367188 47.601562 116.1875 48.054688 116.140625 C 48.160156 116.117188 48.386719 116.101562 48.726562 116.101562 C 49.175781 116.101562 49.824219 116.125 50.671875 116.167969 L 50.769531 116.171875 C 51.410156 116.191406 51.875 116.347656 52.164062 116.636719 L 53.117188 116.636719 C 52.898438 116.253906 52.667969 115.996094 52.421875 115.863281 C 52.113281 115.679688 51.679688 115.578125 51.128906 115.554688 L 51.003906 115.546875 C 49.964844 115.488281 49.167969 115.457031 48.609375 115.457031 Z M 48.609375 115.457031 "/>
<path style=" stroke:none;fill-rule:nonzero;fill:rgb(78.039217%,98.039216%,25.490198%);fill-opacity:1;" d="M 82.910156 194.046875 L 82.621094 194.171875 L 82.335938 194.292969 L 82.910156 194.046875 "/>
<path style=" stroke:none;fill-rule:nonzero;fill:rgb(38.82353%,25.882354%,12.941177%);fill-opacity:1;" d="M 42.179688 102.835938 C 41.292969 103.566406 40.738281 104.445312 40.523438 105.480469 C 40.421875 106.144531 40.390625 106.539062 40.425781 106.667969 C 40.4375 106.929688 40.472656 107.1875 40.53125 107.4375 C 40.648438 107.945312 40.855469 108.433594 41.152344 108.90625 C 41.742188 109.863281 42.648438 110.519531 43.878906 110.875 C 44.140625 110.941406 44.402344 110.984375 44.664062 111.007812 C 44.707031 111.019531 44.78125 111.027344 44.882812 111.027344 C 45.082031 111.027344 45.398438 111 45.824219 110.949219 C 46.332031 110.855469 46.835938 110.671875 47.332031 110.398438 C 47.726562 110.15625 48.070312 109.878906 48.367188 109.574219 C 47.730469 109.890625 47.015625 110.050781 46.21875 110.050781 C 44.929688 109.984375 43.84375 109.484375 42.96875 108.550781 C 42.691406 108.25 42.449219 107.914062 42.246094 107.542969 L 41.980469 106.96875 C 41.824219 106.566406 41.722656 106.144531 41.667969 105.699219 C 41.574219 104.632812 41.746094 103.679688 42.179688 102.835938 Z M 42.179688 102.835938 "/>
<path style=" stroke:none;fill-rule:nonzero;fill:rgb(38.82353%,25.882354%,12.941177%);fill-opacity:1;" d="M 65.265625 91.355469 C 64.632812 91.355469 63.84375 91.425781 62.90625 91.566406 C 60.382812 91.941406 57.335938 92.742188 53.761719 93.960938 C 50.199219 95.210938 47.3125 96.46875 45.097656 97.734375 C 42.886719 99 41.847656 99.980469 41.992188 100.679688 L 42.21875 100.960938 L 42.660156 101.148438 L 43.300781 101.253906 C 43.484375 101.269531 43.679688 101.277344 43.894531 101.277344 C 44.257812 101.277344 44.664062 101.253906 45.117188 101.210938 C 47.355469 100.992188 50.210938 100.335938 53.691406 99.246094 C 57.324219 98.066406 60.402344 96.824219 62.929688 95.515625 C 64.636719 94.628906 65.839844 93.851562 66.53125 93.183594 C 65.304688 93.859375 64.070312 94.476562 62.839844 95.039062 C 60.144531 96.273438 57.605469 97.300781 55.214844 98.125 C 53.261719 98.804688 51.332031 99.367188 49.429688 99.804688 C 48.175781 100.089844 47.070312 100.296875 46.105469 100.417969 C 45.632812 100.480469 45.214844 100.515625 44.855469 100.527344 L 44.371094 100.527344 C 43.066406 100.433594 43.386719 99.8125 45.332031 98.667969 C 47.59375 97.429688 50.164062 96.304688 53.035156 95.300781 C 54.144531 94.882812 55.941406 94.292969 58.425781 93.542969 C 59.816406 93.136719 61.058594 92.816406 62.144531 92.585938 C 63.667969 92.226562 65.34375 92.042969 67.175781 92.039062 L 67.175781 91.953125 C 66.972656 91.554688 66.335938 91.355469 65.265625 91.355469 Z M 65.265625 91.355469 "/>
<path style=" stroke:none;fill-rule:nonzero;fill:rgb(38.82353%,25.882354%,12.941177%);fill-opacity:1;" d="M 67.171875 92.039062 C 67.125 92.039062 67.078125 92.042969 67.03125 92.042969 C 67.078125 92.042969 67.125 92.039062 67.175781 92.039062 Z M 67.171875 92.039062 "/>
<path style=" stroke:none;fill-rule:nonzero;fill:rgb(78.039217%,98.039216%,25.490198%);fill-opacity:1;" d="M 53.855469 98.226562 L 53.582031 98.191406 C 52.386719 98.074219 51.453125 97.777344 50.773438 97.304688 C 50.210938 96.9375 49.671875 96.253906 49.160156 95.246094 C 48.921875 94.785156 48.75 94.148438 48.652344 93.324219 C 48.636719 93.234375 48.625 92.953125 48.617188 92.472656 C 48.667969 90.570312 48.683594 89.441406 48.664062 89.09375 C 48.652344 88.332031 48.601562 87.621094 48.515625 86.960938 C 48.328125 85.828125 48.058594 85.128906 47.707031 84.863281 C 47.304688 84.457031 46.707031 84.371094 45.917969 84.609375 C 45.015625 84.929688 44.410156 85.414062 44.105469 86.054688 C 43.796875 86.761719 43.792969 87.390625 44.097656 87.945312 C 44.371094 88.390625 44.902344 88.800781 45.691406 89.171875 C 44.320312 89.210938 43.496094 88.800781 43.222656 87.941406 C 43.035156 87.449219 42.988281 86.890625 43.074219 86.261719 C 43.175781 85.628906 43.441406 85.074219 43.875 84.597656 C 44.882812 83.613281 46.003906 83.203125 47.242188 83.371094 C 48.601562 83.636719 49.480469 84.585938 49.886719 86.210938 C 49.988281 86.589844 50.03125 87.3125 50.011719 88.386719 L 49.738281 92.085938 C 49.714844 92.792969 49.710938 93.210938 49.726562 93.332031 C 49.746094 94.128906 49.894531 94.828125 50.171875 95.4375 C 50.476562 96.03125 50.925781 96.535156 51.523438 96.941406 C 52.007812 97.292969 52.785156 97.722656 53.855469 98.226562 "/>
<path style=" stroke:none;fill-rule:nonzero;fill:rgb(78.039217%,98.039216%,25.490198%);fill-opacity:1;" d="M 51.148438 87.015625 L 51.105469 86.777344 C 50.976562 86.0625 50.855469 85.546875 50.734375 85.226562 C 50.597656 84.832031 50.40625 84.523438 50.160156 84.300781 C 50.046875 84.175781 49.808594 84.042969 49.441406 83.894531 C 49.390625 83.871094 49.222656 83.820312 48.933594 83.746094 L 48.753906 83.703125 C 48.136719 83.574219 47.769531 83.488281 47.652344 83.445312 C 47.410156 83.378906 47.191406 83.289062 46.992188 83.175781 C 46.585938 82.941406 46.339844 82.589844 46.257812 82.121094 C 46.238281 82.011719 46.226562 81.90625 46.230469 81.796875 L 46.238281 81.640625 C 46.253906 81.535156 46.277344 81.441406 46.308594 81.347656 C 46.371094 81.171875 46.492188 81.023438 46.679688 80.90625 C 46.929688 80.773438 47.199219 80.726562 47.492188 80.757812 C 47.785156 80.796875 48 80.882812 48.136719 81.019531 C 48.3125 81.148438 48.445312 81.472656 48.53125 82 C 48.289062 81.421875 47.882812 81.152344 47.308594 81.183594 C 47.0625 81.203125 46.890625 81.300781 46.796875 81.46875 C 46.773438 81.492188 46.753906 81.578125 46.734375 81.738281 C 46.734375 81.871094 46.761719 82.003906 46.824219 82.136719 C 46.917969 82.339844 47.082031 82.492188 47.3125 82.59375 C 47.34375 82.613281 47.46875 82.652344 47.691406 82.707031 L 48.96875 82.886719 C 49.195312 82.925781 49.421875 82.980469 49.640625 83.050781 C 50.125 83.230469 50.449219 83.425781 50.621094 83.640625 C 50.890625 83.925781 51.082031 84.382812 51.199219 85.007812 C 51.304688 85.550781 51.285156 86.21875 51.148438 87.015625 "/>
<path style=" stroke:none;fill-rule:nonzero;fill:rgb(78.039217%,98.039216%,25.490198%);fill-opacity:1;" d="M 56.210938 97.191406 L 56.21875 96.855469 C 56.238281 95.847656 56.203125 95.097656 56.109375 94.609375 C 56.015625 94.007812 55.808594 93.480469 55.484375 93.027344 C 55.152344 92.582031 54.742188 92.195312 54.25 91.863281 C 54.007812 91.675781 53.246094 91.21875 51.96875 90.492188 C 51.648438 90.296875 51.375 90.09375 51.140625 89.882812 C 51.027344 89.777344 50.929688 89.667969 50.84375 89.550781 L 50.738281 89.378906 C 50.613281 89.136719 50.558594 88.886719 50.574219 88.625 C 50.5625 88.558594 50.605469 88.367188 50.703125 88.054688 C 50.804688 87.804688 50.945312 87.582031 51.132812 87.382812 C 51.472656 87.046875 51.820312 86.839844 52.167969 86.761719 C 52.726562 86.648438 53.148438 86.648438 53.433594 86.769531 C 53.917969 86.9375 54.28125 87.210938 54.519531 87.59375 C 54.632812 87.777344 54.695312 87.960938 54.707031 88.148438 C 54.722656 88.195312 54.703125 88.332031 54.640625 88.558594 C 54.523438 88.871094 54.234375 89.257812 53.769531 89.722656 C 54.140625 89.136719 54.300781 88.652344 54.246094 88.265625 C 54.230469 88.179688 54.203125 88.097656 54.164062 88.011719 C 54.042969 87.808594 53.960938 87.691406 53.910156 87.660156 C 53.765625 87.515625 53.585938 87.402344 53.378906 87.328125 C 52.941406 87.167969 52.476562 87.246094 51.980469 87.558594 C 51.46875 87.90625 51.214844 88.28125 51.21875 88.683594 C 51.226562 88.78125 51.261719 88.875 51.3125 88.96875 L 51.410156 89.105469 C 51.484375 89.195312 51.574219 89.285156 51.683594 89.371094 C 51.722656 89.414062 51.914062 89.546875 52.261719 89.765625 C 53.410156 90.398438 54.25 90.902344 54.78125 91.28125 C 55.507812 91.824219 55.964844 92.273438 56.15625 92.636719 C 56.484375 93.136719 56.652344 93.789062 56.660156 94.589844 C 56.660156 95.308594 56.511719 96.175781 56.210938 97.191406 "/>
<path style=" stroke:none;fill-rule:nonzero;fill:rgb(78.039217%,98.039216%,25.490198%);fill-opacity:1;" d="M 66.027344 102.914062 L 66.082031 102.679688 C 66.375 101.25 66.890625 100.234375 67.625 99.632812 C 68.035156 99.261719 68.53125 98.945312 69.113281 98.683594 C 69.851562 98.367188 70.5625 98.171875 71.242188 98.101562 C 72.539062 97.957031 73.707031 98.105469 74.753906 98.550781 C 75.835938 99.015625 77.101562 99.867188 78.550781 101.105469 C 78.054688 100.964844 77.652344 100.929688 77.34375 101.007812 C 76.925781 101.09375 76.492188 101.292969 76.035156 101.597656 C 75.640625 101.832031 75.046875 102.316406 74.25 103.046875 C 73.890625 103.382812 73.222656 104.09375 72.246094 105.183594 C 71.828125 105.601562 71.578125 105.835938 71.488281 105.894531 C 70.867188 106.40625 70.253906 106.699219 69.644531 106.777344 C 68.320312 106.933594 67.320312 106.527344 66.648438 105.550781 C 66.359375 105.097656 66.261719 104.601562 66.347656 104.0625 C 66.457031 103.527344 66.777344 103.019531 67.316406 102.53125 C 68.683594 101.382812 70.171875 100.589844 71.785156 100.164062 C 72.925781 99.871094 74.566406 99.898438 76.703125 100.234375 C 75.253906 99.863281 74.222656 99.664062 73.617188 99.636719 C 72.769531 99.566406 71.960938 99.632812 71.199219 99.832031 C 70.425781 100.027344 69.652344 100.359375 68.886719 100.824219 C 68.3125 101.152344 67.359375 101.851562 66.027344 102.914062 "/>
<path style=" stroke:none;fill-rule:nonzero;fill:rgb(78.039217%,98.039216%,25.490198%);fill-opacity:1;" d="M 65.488281 103.335938 L 65.488281 103.148438 C 65.515625 102.332031 65.371094 101.667969 65.050781 101.164062 C 64.960938 100.988281 64.714844 100.726562 64.3125 100.382812 C 63.9375 100.09375 63.527344 99.863281 63.074219 99.691406 C 61.800781 99.175781 60.109375 99.3125 58 100.109375 C 58.691406 100.332031 59.21875 100.652344 59.578125 101.074219 C 59.734375 101.269531 59.871094 101.503906 59.992188 101.773438 L 60.167969 102.191406 C 60.515625 103.15625 60.707031 103.664062 60.738281 103.714844 C 60.855469 103.980469 60.984375 104.222656 61.128906 104.4375 C 61.476562 104.972656 61.925781 105.351562 62.472656 105.574219 C 62.8125 105.707031 63.152344 105.773438 63.492188 105.773438 C 63.824219 105.777344 64.132812 105.679688 64.417969 105.484375 C 65.042969 104.945312 65.222656 104.339844 64.960938 103.667969 C 64.503906 102.859375 63.800781 102.097656 62.859375 101.382812 C 62.285156 100.941406 61.414062 100.519531 60.234375 100.113281 C 61.574219 100.355469 62.582031 100.695312 63.25 101.121094 C 64.210938 101.703125 64.953125 102.441406 65.488281 103.335938 "/>
</g>
</svg>
