<svg xmlns="http://www.w3.org/2000/svg" xmlns:xlink="http://www.w3.org/1999/xlink" version="1.1" viewBox="545.68 797.43 46.97 31.67">
<g id="layer1">
<g>
<g style="fill:rgb(0,0,0); fill-opacity:1.0; stroke-linejoin: miter">
<path d="M584.9625,824.5079L581.6043,824.5139L581.4183,825.3971L581.4183,825.3971L584.7768,825.39124L584.9625,824.5079 Z M552.63275,825.47565L552.77704,827.6426L551.5395,827.6449L551.5395,827.6449L552.63275,825.47565 Z M570.0473,825.41766Q570.28015,825.4178,570.2804,825.5711Q570.2805,825.59125,570.2739,825.61804Q570.2739,825.64484,570.26733,825.6783L569.78955,827.9333Q569.763,828.0538,569.69617,828.1075Q569.62933,828.1611,569.4689,828.16144L568.2044,828.1635Q568.2039,828.1635,568.2034,828.1635Q568.01056,828.16364,568.01025,828.0235Q568.01025,828.0034,568.0234,827.93634L568.50116,825.6812Q568.53424,825.5273,568.5944,825.4736Q568.64777,825.42004,568.78174,825.4198L570.046,825.41766Q570.04663,825.41766,570.0473,825.41766 Z M592.6422,824.49414L589.42444,824.4997L589.23883,825.38995L590.33594,825.388L589.573,829.02844L590.5897,829.0266L591.3528,825.3861L592.4566,825.38416L592.6422,824.49414 Z M588.9896,824.5006L586.4409,824.5052Q586.0128,824.50586,585.79895,824.70026Q585.59204,824.8946,585.50586,825.2964L584.88873,828.2475Q584.86884,828.33453,584.86224,828.408Q584.85565,828.4749,584.8557,828.54193Q584.8562,828.796,585.0037,828.9162Q585.15027,829.03577,585.4887,829.03577Q585.4905,829.03577,585.49225,829.03577L588.0543,829.0311L588.2466,828.11426L586.1862,828.11786Q586.1854,828.11786,586.1846,828.11786Q586.05884,828.11786,586.0122,828.0849Q585.9653,828.0514,585.9652,827.97784Q585.9653,827.9512,585.9719,827.9245Q585.9719,827.9044,585.9785,827.871L586.44977,825.66254Q586.4829,825.5087,586.54297,825.455Q586.5964,825.4081,586.757,825.40784L588.804,825.40405L588.9896,824.5006 Z M582.40234,825.7299L581.35205,825.7317L580.65564,829.0444L580.65564,829.0444L584.0138,829.03845L584.1995,828.1348L581.89154,828.13904L582.09064,827.18884L583.7564,827.18585L583.9089,826.4631L583.9089,826.4631L582.2433,826.4662L582.40234,825.7299 Z M580.8817,824.515L579.93195,824.5167L579.3679,827.22034L577.87805,824.5204L576.9213,824.5222L575.97296,829.0528L576.91614,829.05115L577.53955,826.07965L579.2575,829.04694L579.9331,829.0456L580.8817,824.515 Z M576.17896,824.5235L575.22894,824.5254L574.66516,827.229L573.17523,824.5291L572.21857,824.5306L571.27,829.0611L572.21326,829.0595L572.8369,826.0884L574.5547,829.0554L575.23035,829.0542L576.17896,824.5235 Z M570.75696,824.5332Q570.7553,824.5332,570.75354,824.5332L568.4991,824.53735Q568.0642,824.5381,567.8573,824.7324Q567.65027,824.92694,567.56396,825.3283L566.947,828.27954Q566.9071,828.4535,566.9075,828.5806Q566.90796,828.82825,567.0619,828.94824Q567.2086,829.06775,567.5471,829.0679Q567.5489,829.0679,567.5506,829.0679L569.80493,829.06384Q570.2331,829.06305,570.44684,828.86865Q570.65375,828.6743,570.74,828.27277L571.3571,825.32166Q571.3703,825.2414,571.3835,825.16766Q571.39,825.0941,571.38995,825.0272Q571.38947,824.773,571.24207,824.6529Q571.09546,824.5332,570.75696,824.5332 Z M567.1211,824.53986L564.5723,824.5444Q564.1441,824.545,563.93036,824.7395Q563.7234,824.93384,563.637,825.3354L563.02026,828.2866Q563.0003,828.37354,562.9938,828.44727Q562.9872,828.51404,562.9874,828.58105Q562.9878,828.83527,563.13525,828.9554Q563.2819,829.0749,563.6203,829.0749Q563.6221,829.0749,563.6238,829.0749L566.1859,829.0704L566.37823,828.1535L564.31775,828.1573Q564.31696,828.1573,564.31604,828.1573Q564.1904,828.15717,564.1438,828.12396Q564.0968,828.09064,564.0968,828.01715Q564.09674,827.99036,564.10333,827.9637Q564.10333,827.9436,564.11,827.91003L564.58093,825.70154Q564.6141,825.5475,564.6742,825.494Q564.7276,825.447,564.8884,825.44696L566.93536,825.44324L567.1211,824.53986 Z M561.50836,824.5497L560.5116,824.5515L558.9721,827.8657L558.8258,824.55457L557.8089,824.55634L556.17596,827.87744L556.0964,824.55945L555.0528,824.5614L555.2348,829.08984L556.372,829.0876L558.012,825.85376L558.1849,829.08435L559.329,829.08264L561.50836,824.5497 Z M553.5274,824.5641L552.1962,824.56647L549.8497,829.0995L549.8497,829.0995L550.833,829.0978L551.1796,828.39484L552.8119,828.3918L552.86005,829.0943L553.8835,829.09235L553.5274,824.5641 Z M549.5039,824.5715Q549.50214,824.5715,549.5003,824.5715L546.6237,824.57654L546.438,825.4597L548.83966,825.4555Q548.84045,825.4555,548.84143,825.4555Q548.95374,825.4555,549.00024,825.48193Q549.0471,825.5087,549.0472,825.5889Q549.0473,825.6091,549.04065,825.63586Q549.04065,825.66266,549.03406,825.6961L548.87476,826.432Q548.84155,826.5727,548.78815,826.6196Q548.74146,826.6665,548.5943,826.6669L547.20276,826.6691L547.38855,825.79254L546.3717,825.7944L545.6752,829.10706L545.6752,829.10706L546.69214,829.1053L547.0436,827.4188L548.50867,827.4162Q548.5092,827.4162,548.50977,827.4162Q548.6959,827.4161,548.6961,827.52277Q548.69604,827.5428,548.68945,827.56976Q548.68945,827.5898,548.6828,827.623L548.3779,829.10223L549.3948,829.10034L549.7198,827.5278Q549.7331,827.4876,549.733,827.4475Q549.7329,827.41406,549.73285,827.3805Q549.73236,827.1665,549.5851,827.0797Q549.43774,826.9998,549.2236,826.98663Q549.45776,826.9596,549.6515,826.8121Q549.8452,826.6712,549.91815,826.3231L550.1238,825.3396Q550.1371,825.266,550.1504,825.199Q550.15686,825.1321,550.15674,825.07184Q550.1564,824.8178,550.0023,824.691Q549.84906,824.5715,549.5039,824.5715 Z"/>
</g>
</g>
<g style="fill:rgb(99,66,33); fill-opacity:1.0; stroke-linejoin: miter">
<path d="M576.16846,816.2286L575.9048,816.54877Q573.94214,819.0912,571.6818,819.82776Q570.25055,820.3118,568.60345,820.40845Q567.11206,820.4953,565.75385,820.26807Q564.2656,820.01624,563.04785,819.394Q562.64276,819.1871,562.2707,818.94006L561.9074,818.6834Q561.5526,818.4168,561.23285,818.1109Q559.9103,816.9364,558.26276,813.51447L560.0876,813.7538Q560.58246,815.1673,561.3676,816.2293Q562.2291,817.32465,563.0928,817.90125Q564.2809,818.6729,565.0088,818.88947Q566.0795,819.24774,566.86194,819.3542Q569.88367,819.8185,572.3133,819.0069Q573.0237,818.8008,574.2682,817.93365Q575.2828,817.1415,576.16846,816.2286"/>
</g>
<g style="fill:rgb(199,250,65); fill-opacity:1.0; stroke-linejoin: miter">
<path d="M561.9607,828.5656L561.9607,828.5656L561.9607,828.5656"/>
</g>
<g style="fill:rgb(199,250,65); fill-opacity:1.0; stroke-linejoin: miter">
<path d="M562.14075,828.56555L562.14075,828.56555L562.14075,828.56555"/>
</g>
<g style="fill:rgb(139,226,255); fill-opacity:1.0; stroke-linejoin: miter">
<path d="M563.1633,826.7623Q563.10754,826.84863,563.0315,826.9338Q562.7192,827.2508,562.26263,827.276Q562.08997,827.2923,561.90247,827.2923Q561.8841,827.2923,561.8655,827.2922L560.1989,827.27313L559.97253,827.27057Q559.6257,827.2566,559.35004,827.12537Q559.3362,827.1193,559.3224,827.1124L559.0796,827.63434Q559.3723,827.7619,559.7228,827.77765Q559.8358,827.7851,559.951,827.7888L559.951,827.78894Q560.05524,827.79224,560.16046,827.79224L561.65967,827.7937Q561.9402,827.802,562.08374,827.8021L562.0873,827.80225Q562.0925,827.8021,562.0976,827.8021Q562.1138,827.80225,562.13,827.80225Q562.3726,827.80225,562.59576,827.7767Q562.9324,827.7327,563.12366,827.6307Q563.1426,827.6209,563.1612,827.6104L563.33875,826.76245L563.1633,826.7623 Z"/>
</g>
<g style="fill:rgb(139,226,255); fill-opacity:1.0; stroke-linejoin: miter">
<path d="M561.43134,824.71L561.2031,825.18445Q561.2121,825.1848,561.2208,825.1852Q561.37555,825.191,561.5476,825.1987Q561.7178,825.2063,561.9049,825.216L561.9804,825.2207Q562.9245,825.24884,563.1926,825.80536Q563.3114,826.02966,563.31793,826.24506L563.31866,826.24506L563.44666,826.24646L563.6275,825.3813Q563.434,825.1017,563.22125,824.9864Q562.8729,824.7795,562.2495,824.75336L562.1548,824.7468Q562.0322,824.73987,561.9156,824.7336Q561.8706,824.73126,561.8264,824.729L561.8265,824.729Q561.61945,824.71826,561.4318,824.71 Z"/>
</g>
<g style="fill:rgb(139,226,255); fill-opacity:1.0; stroke-linejoin: miter">
<path d="M558.92145,826.7167L558.92145,826.7168L558.95935,827.5756C558.9987,827.5968,559.0567,827.6251,559.09766,827.6429L559.3389,827.12354C559.1913,827.0497,559.04095,826.90686,558.92175,826.7167L558.92145,826.7168 Z"/>
</g>
<g style="fill:rgb(139,226,255); fill-opacity:1.0; stroke-linejoin: miter">
<path d="M560.3541,824.6807Q559.8414,824.6807,559.68567,824.7244Q559.22015,824.7843,558.8485,825.07404L558.88403,825.87177Q558.9485,825.73785,559.0567,825.6029Q559.4249,825.2505,559.9366,825.1957Q560.0184,825.1763,560.224,825.1702L560.4515,824.6813Q560.40155,824.6807,560.3543,824.6807 Z"/>
</g>
<g style="fill:rgb(139,226,255); fill-opacity:1.0; stroke-linejoin: miter">
<path d="M560.4515,824.6813L560.2243,825.1702L560.4515,824.6813 Z"/>
</g>
<g style="fill:rgb(118,142,154); fill-opacity:1.0; stroke-linejoin: miter">
<path d="M561.22046,825.1852L561.22046,825.1852Q561.20386,825.5336,561.3424,825.86487Q561.59283,826.369,561.91516,826.53644Q562.2603,826.7283,562.6955,826.74774Q562.9105,826.7622,563.133,826.7622L563.1633,826.7623L563.8423,826.76294L564.35443,826.76355L564.6322,826.7637Q564.9126,826.7721,565.0561,826.7721L565.0598,826.7722Q565.065,826.7721,565.07007,826.7721Q565.0863,826.7722,565.1025,826.7722Q565.3453,826.7722,565.56836,826.7466Q565.9051,826.70276,566.09625,826.60077Q566.3601,826.46326,566.5341,826.24023Q566.83026,825.85284,566.88446,825.44336L566.88403,825.44336L566.2646,825.44434Q566.2048,825.67975,566.00415,825.9038Q565.6918,826.2208,565.23517,826.246Q565.0625,826.2624,564.875,826.2624Q564.85657,826.2624,564.8381,826.26227L564.46216,826.25793L563.9241,826.2518L563.92334,826.2519L563.31866,826.24506L563.3183,826.24506Q563.3183,826.24506,563.3183,826.2452L563.3183,826.2453L562.9452,826.24066Q562.5983,826.2267,562.3229,826.0957Q562.06555,825.98114,561.86475,825.63794Q561.7561,825.4245,561.7626,825.20886Q561.6519,825.2034,561.5476,825.1987Q561.37555,825.191,561.2208,825.1852 Z"/>
</g>
<g style="fill:rgb(118,142,154); fill-opacity:1.0; stroke-linejoin: miter">
<path d="M563.3268,823.65106Q562.81396,823.65106,562.6583,823.69476Q562.0162,823.7772,561.5527,824.29706Q561.4557,824.3989,561.38367,824.55005L561.50836,824.5497L561.43134,824.7099Q561.53925,824.7147,561.65295,824.7203Q561.73834,824.7244,561.8267,824.729Q561.8707,824.73126,561.9156,824.7336Q561.96454,824.6533,562.0292,824.573Q562.39764,824.22064,562.9093,824.16583Q563.0289,824.13745,563.4138,824.13745Q563.9196,824.1377,564.87756,824.1861L564.953,824.1907Q565.6738,824.21234,566.00055,824.5418L566.71857,824.5406Q566.4728,824.10754,566.1938,823.95654Q565.84546,823.7495,565.2221,823.7236L565.1274,823.717Q563.95734,823.6508,563.3269,823.65106 Z"/>
</g>
<g style="fill:rgb(99,66,33); fill-opacity:1.0; stroke-linejoin: miter">
<path d="M558.48676,814.11676Q557.4851,814.9441,557.24005,816.1134Q557.128,816.86664,557.1667,817.0123Q557.18054,817.30774,557.24603,817.5937Q557.3771,818.16565,557.71436,818.7005Q558.3788,819.7849,559.76526,820.18994Q560.0631,820.2646,560.3571,820.2882Q560.40704,820.303,560.5211,820.303Q560.7482,820.303,561.2293,820.2449Q561.8047,820.13965,562.3634,819.83044Q562.81085,819.55316,563.1433,819.207L563.1429,819.2071Q562.4249,819.5658,561.52747,819.5658L561.52625,819.5659Q560.0699,819.4901,559.082,818.43365Q558.76514,818.09216,558.5377,817.67267L558.337,817.2376Q558.1611,816.7853,558.1023,816.27844Q557.99506,815.0736,558.4871,814.11676 Z"/>
</g>
<g style="fill:rgb(99,66,33); fill-opacity:1.0; stroke-linejoin: miter">
<path d="M575.8614,805.44525Q575.1453,805.4453,574.0856,805.6043Q571.2369,806.03143,567.2032,807.41266Q563.18304,808.832,560.6838,810.264Q558.18445,811.6964,558.34595,812.488L558.5165,812.6996L558.849,812.84375L559.3316,812.9221Q559.537,812.939,559.7767,812.939Q560.1876,812.9393,560.69885,812.8898Q563.2237,812.6403,567.15,811.4048Q571.2506,810.0715,574.10333,808.5891Q576.0316,807.58435,576.81445,806.82635L576.81396,806.82635Q575.4271,807.5914,574.0346,808.22815Q570.9942,809.6261,568.2976,810.5584Q566.0904,811.3301,563.94183,811.8269Q562.529,812.15186,561.4427,812.2923Q560.90765,812.36096,560.50195,812.37476L560.13684,812.3734Q558.6644,812.267,560.8591,810.9694Q563.4144,809.5643,566.6553,808.4272Q567.91016,807.9502,570.7133,807.09753Q572.28546,806.6372,573.5119,806.37634Q575.2331,805.966,577.29785,805.9636L577.2989,805.8981Q577.07,805.4451,575.8614,805.44525 Z"/>
</g>
<g style="fill:rgb(99,66,33); fill-opacity:1.0; stroke-linejoin: miter">
<path d="M577.29736,805.9636Q577.24286,805.9636,577.18866,805.96387L577.18866,805.964Q577.24316,805.9636,577.29785,805.9636 Z"/>
</g>
<g style="fill:rgb(99,66,33); fill-opacity:1.0; stroke-linejoin: miter">
<path d="M578.2588,817.6911L578.2588,817.6911L578.2588,817.6911L578.2588,817.6911"/>
</g>
<g style="fill:rgb(199,250,65); fill-opacity:1.0; stroke-linejoin: miter">
<path d="M567.27386,810.6358L567.06885,810.6092Q565.72015,810.4761,564.9558,809.93915Q564.3177,809.5259,563.74066,808.3839Q563.4698,807.8649,563.3591,806.9332Q563.342,806.8333,563.33154,806.2909Q563.3875,804.1327,563.36584,803.7372Q563.3539,802.87537,563.2545,802.1268Q563.0432,800.84235,562.64703,800.54126Q562.1911,800.08264,561.3002,800.3496Q560.2796,800.7161,559.93646,801.4435Q559.5879,802.24255,559.93097,802.8692Q560.2405,803.37646,561.13,803.79565Q559.58075,803.8426,559.27124,802.8681Q559.06104,802.309,559.16144,801.59906Q559.273,800.8805,559.7622,800.3431Q560.901,799.22577,562.29663,799.4154Q563.8307,799.71796,564.2859,801.5603Q564.4043,801.9884,564.3819,803.2041L564.17615,805.99664Q564.148,806.80023,564.1655,806.93805Q564.1871,807.8409,564.5021,808.5288Q564.8433,809.2032,565.52,809.6662Q566.06415,810.0644,567.27386,810.6358"/>
</g>
<g style="fill:rgb(199,250,65); fill-opacity:1.0; stroke-linejoin: miter">
<path d="M565.23584,802.1694L565.20386,801.9896Q565.061,801.17883,564.9252,800.818Q564.7723,800.369,564.49365,800.11816Q564.3655,799.97784,563.95154,799.8104Q563.8955,799.7836,563.56885,799.6978L563.4346,799.6664Q562.7387,799.5195,562.60486,799.4724Q562.33325,799.3955,562.10815,799.2686Q561.65045,799.00024,561.55566,798.4726Q561.533,798.3488,561.5347,798.22736L561.54254,798.1086Q561.55664,797.9913,561.59576,797.8881Q561.66327,797.68646,561.87317,797.55536Q562.1557,797.4045,562.48376,797.44226Q562.8166,797.4869,562.9694,797.63837Q563.1708,797.78467,563.26807,798.3795Q562.9934,797.72565,562.34717,797.76416Q562.06824,797.78625,561.96155,797.9803Q561.9352,798.0033,561.9154,798.18115Q561.9129,798.3318,561.9829,798.4832Q562.08856,798.71533,562.34863,798.82825Q562.3835,798.85284,562.636,798.9131L563.5952,799.0501Q563.85364,799.09454,564.10095,799.1747Q564.6473,799.3751,564.83905,799.6202Q565.14514,799.9435,565.27356,800.65234Q565.3932,801.26697,565.23584,802.1694"/>
</g>
<g style="fill:rgb(199,250,65); fill-opacity:1.0; stroke-linejoin: miter">
<path d="M569.04785,809.8526L569.05225,809.59955Q569.0742,808.4593,568.9698,807.9025Q568.86487,807.2206,568.50134,806.70905Q568.12494,806.20514,567.57025,805.8283Q567.29675,805.61707,565.85443,804.79395Q565.4933,804.5736,565.23083,804.3338Q565.1016,804.2133,565.0086,804.08417L564.92664,803.9521Q564.787,803.6788,564.8053,803.3831Q564.7896,803.30743,564.90216,802.9523Q565.0154,802.66974,565.2237,802.4451Q565.61096,802.0655,566.00476,801.9755Q566.63245,801.8465,566.95624,801.9824Q567.5044,802.1724,567.7734,802.6044Q567.90045,802.81134,567.9139,803.0243Q567.9341,803.0785,567.8641,803.3333Q567.73425,803.6871,567.20935,804.21326Q567.6278,803.55084,567.56744,803.1136Q567.5511,803.01654,567.5062,802.92163Q567.3711,802.69025,567.3153,802.6556Q567.1503,802.4904,566.9152,802.404Q566.42255,802.22437,565.86334,802.5772Q565.28424,802.9713,565.2895,803.42804Q565.3002,803.5389,565.36163,803.6432L565.43365,803.7463Q565.51715,803.84814,565.63947,803.9471Q565.68243,803.99646,566.0735,804.24493Q567.3698,804.9617,567.97076,805.3912Q568.7899,806.0033,569.0064,806.413Q569.3762,806.98083,569.3843,807.8878Q569.386,808.7057,569.04785,809.8526"/>
</g>
<g style="fill:rgb(199,250,65); fill-opacity:1.0; stroke-linejoin: miter">
<path d="M576.4349,814.1769L576.4759,813.9986Q576.80676,812.3806,577.63635,811.69763Q578.09955,811.2768,578.75586,810.9796Q579.5931,810.62225,580.3603,810.5409Q581.82184,810.3778,583.0022,810.8793Q584.224,811.40936,585.861,812.8085Q585.3007,812.6502,584.95105,812.7354Q584.4807,812.83527,583.96765,813.1818Q583.5205,813.4471,582.62274,814.27594Q582.21747,814.6563,581.1134,815.89154Q580.64545,816.3619,580.5453,816.4284Q579.84406,817.0056,579.15643,817.0936Q577.66254,817.27094,576.9009,816.1687Q576.5776,815.6543,576.6761,815.04443Q576.798,814.4386,577.404,813.88776Q578.94727,812.5838,580.76904,812.0982Q582.0551,811.7695,584.46893,812.1517Q582.83105,811.7335,582.1452,811.6997Q581.1886,811.6222,580.32733,811.84784Q579.452,812.0718,578.5878,812.5991Q577.93604,812.9702,576.4349,814.1769"/>
</g>
<g style="fill:rgb(199,250,65); fill-opacity:1.0; stroke-linejoin: miter">
<path d="M576.028,814.4956L576.02765,814.3539Q576.0613,813.4264,575.69995,812.8544Q575.5996,812.654,575.1427,812.2639Q574.72314,811.93774,574.2122,811.7425Q572.7748,811.1559,570.392,812.05756Q571.1764,812.30914,571.58014,812.7872Q571.75616,813.0074,571.89197,813.31464L572.0233,813.6303Q572.4164,814.7233,572.4554,814.78033Q572.58746,815.08325,572.74677,815.32635Q573.13934,815.9324,573.76074,816.1842Q574.14136,816.3379,574.5271,816.33514Q574.8997,816.34033,575.22437,816.11774Q575.92896,815.50555,575.6314,814.7451Q575.11505,813.8313,574.049,813.018Q573.4041,812.5193,572.0759,812.05945Q573.5889,812.33795,574.3444,812.8211Q575.42706,813.4811,576.028,814.4956"/>
</g>
<g style="fill:rgb(199,250,65); fill-opacity:1.0; stroke-linejoin: miter">
<path d="M574.9996,811.5648L574.9996,811.5648L574.9996,811.5648L574.9996,811.5648"/>
</g>
</g>
</svg>