<svg width="25" height="24" viewBox="0 0 25 24" fill="none" xmlns="http://www.w3.org/2000/svg">
<path d="M4.25 4.875C4.25 4.254 4.754 3.75 5.375 3.75H9.875C10.496 3.75 11 4.254 11 4.875V9.375C11 9.996 10.496 10.5 9.875 10.5H5.375C5.07663 10.5 4.79048 10.3815 4.5795 10.1705C4.36853 9.95952 4.25 9.67337 4.25 9.375V4.875ZM4.25 14.625C4.25 14.004 4.754 13.5 5.375 13.5H9.875C10.496 13.5 11 14.004 11 14.625V19.125C11 19.746 10.496 20.25 9.875 20.25H5.375C5.07663 20.25 4.79048 20.1315 4.5795 19.9205C4.36853 19.7095 4.25 19.4234 4.25 19.125V14.625ZM14 4.875C14 4.254 14.504 3.75 15.125 3.75H19.625C20.246 3.75 20.75 4.254 20.75 4.875V9.375C20.75 9.996 20.246 10.5 19.625 10.5H15.125C14.8266 10.5 14.5405 10.3815 14.3295 10.1705C14.1185 9.95952 14 9.67337 14 9.375V4.875Z" stroke="#1A1D1C" stroke-width="1.5" stroke-linecap="round" stroke-linejoin="round"/>
<path d="M7.25 6.75H8V7.5H7.25V6.75ZM7.25 16.5H8V17.25H7.25V16.5ZM17 6.75H17.75V7.5H17V6.75ZM14 13.5H14.75V14.25H14V13.5ZM14 19.5H14.75V20.25H14V19.5ZM20 13.5H20.75V14.25H20V13.5ZM20 19.5H20.75V20.25H20V19.5ZM17 16.5H17.75V17.25H17V16.5Z" stroke="#1A1D1C" stroke-width="1.5" stroke-linecap="round" stroke-linejoin="round"/>
</svg>
