<svg width="22" height="16" viewBox="0 0 22 16" fill="none" xmlns="http://www.w3.org/2000/svg">
<path d="M15.75 2V2.75M15.75 5.75V6.5M15.75 9.5V10.25M15.75 13.25V14M6.75 8.75H12M6.75 11H9.75M2.625 1.25C2.004 1.25 1.5 1.754 1.5 2.375V5.401C1.95675 5.66398 2.33612 6.04267 2.59992 6.49895C2.86371 6.95522 3.0026 7.47296 3.0026 8C3.0026 8.52704 2.86371 9.04478 2.59992 9.50105C2.33612 9.95733 1.95675 10.336 1.5 10.599V13.625C1.5 14.246 2.004 14.75 2.625 14.75H19.875C20.496 14.75 21 14.246 21 13.625V10.599C20.5433 10.336 20.1639 9.95733 19.9001 9.50105C19.6363 9.04478 19.4974 8.52704 19.4974 8C19.4974 7.47296 19.6363 6.95522 19.9001 6.49895C20.1639 6.04267 20.5433 5.66398 21 5.401V2.375C21 1.754 20.496 1.25 19.875 1.25H2.625Z" stroke="white" stroke-width="1.5" stroke-linecap="round" stroke-linejoin="round"/>
</svg>
